# xmcd CD database file
#
# Track frame offsets:
#	225
#	14635
#	30608
#	48881
#	64448
#	81443
#	96920
#	113228
#	132762
#	149748
#	166761
#	180414
#	195562
#	207351
#	222028
#	238419
#	255783
#	268853
#	282707
#	300299
#
# Disc length: 4208 seconds
#
# Revision: 0
# Processed by: cddbd v1.4PL0 Copyright (c) Steve Scherf et al.
# Submitted via: CDex 1.50Beta7
#
DISCID=2a106d14
DTITLE=Zelenaci - At te country pohladi
DYEAR=2001
DGENRE=Country
TTITLE0=At te country pohladi
TTITLE1=Bilej pes
TTITLE2=To jsem se naucil v lapaku
TTITLE3=Tak good bay, adieu
TTITLE4=Farmarova dcera
TTITLE5=Cernej stin v patach mam
TTITLE6=Nemam rad zlutou
TTITLE7=Cekani
TTITLE8=To rano, co mu predchazel flam
TTITLE9=Ma pychu kralu
TTITLE10=Projizdim kolem dalnici
TTITLE11=Za rekou je Memphis
TTITLE12=Houslova laska
TTITLE13=Pluj, tise pluj
TTITLE14=Kral riskeru
TTITLE15=Tata muj mi rikal
TTITLE16=Mel jsem ctyri kamose
TTITLE17=Nejsi jedinej muj hrich
TTITLE18=Propasnul jsem sanci
TTITLE19=Aztecka ukolebavka
EXTD=YEAR: 2001
EXTT0=
EXTT1=
EXTT2=
EXTT3=
EXTT4=
EXTT5=
EXTT6=
EXTT7=
EXTT8=
EXTT9=
EXTT10=
EXTT11=
EXTT12=
EXTT13=
EXTT14=
EXTT15=
EXTT16=
EXTT17=
EXTT18=
EXTT19=
PLAYORDER=
